# xmcd
#
# Track frame offsets:
#	150
#	11915
#	18731
#	37521
#	56460
#	68985
#	73492
#	81792
#	97916
#	104962
#	111778
#	128956
#	139411
#	146448
#	153135
#	158217
#	166916
#	183138
#	193324
#	199269
#	213193
#
# Disc length: 3126 seconds
#
# Revision: 0
# Processed by: cddbd v1.5.2PL0 Copyright (c) Steve Scherf et al.
# Submitted via: EasyCDDAExtractor 15.2.0.1
#
DISCID=300c3415
DTITLE=Дога Евгений - Остров любви
DYEAR=2010
DGENRE=Blues
TTITLE0=На Водных Лыжах 
TTITLE1=Прощай Лондон 
TTITLE2=Остров Любви 
TTITLE3=Дельтаплан на Двоих 
TTITLE4=Под Южным Небом 
TTITLE5=Расставание 
TTITLE6=Нежные Струны 
TTITLE7=Hyde Park
TTITLE8=Сожаление 
TTITLE9=Улицы Детства 
TTITLE10=Dreams
TTITLE11=Кошки
TTITLE12=Воспоминания 
TTITLE13=Арена 
TTITLE14=Аттракцион 
TTITLE15=Под Куполом 
TTITLE16=Эхо Моря 
TTITLE17=Я, кажется Люблю 
TTITLE18=Ковбойские Страусы 
TTITLE19=На Берегу Моря 
TTITLE20=London Bridge
EXTD=
EXTT0=
EXTT1=
EXTT2=
EXTT3=
EXTT4=
EXTT5=
EXTT6=
EXTT7=
EXTT8=
EXTT9=
EXTT10=
EXTT11=
EXTT12=
EXTT13=
EXTT14=
EXTT15=
EXTT16=
EXTT17=
EXTT18=
EXTT19=
EXTT20=
PLAYORDER=
